<svg xmlns="http://www.w3.org/2000/svg" viewBox="0 0 860 300" font-family="Helvetica, Arial, sans-serif" font-size="14">
  <rect width="860" height="300" fill="#ffffff"/>
  <rect x="10" y="10" width="560" height="280" rx="10" fill="#f4f4ef" stroke="#888" stroke-dasharray="6 4"/>
  <text x="24" y="34" font-weight="bold">Inside the organisation (on-premise / air-gapped)</text>
  <rect x="30" y="120" width="100" height="50" rx="6" fill="#fff" stroke="#333"/><text x="80" y="150" text-anchor="middle">Client</text>
  <rect x="170" y="60" width="180" height="200" rx="8" fill="#fff" stroke="#c8102e" stroke-width="2"/>
  <text x="260" y="84" text-anchor="middle" font-weight="bold">Schild API</text>
  <text x="185" y="114">1. Rules (AHV, IBAN, …)</text>
  <text x="185" y="144">2. Apertus pass</text>
  <text x="185" y="174">3. Join spans</text>
  <text x="185" y="204">4. Placeholders + vault</text>
  <text x="185" y="234">5. Restore answer</text>
  <rect x="400" y="110" width="150" height="70" rx="6" fill="#fff" stroke="#333"/>
  <text x="475" y="138" text-anchor="middle">Apertus 1.5 8B</text><text x="475" y="160" text-anchor="middle" font-size="12">llama.cpp / CSCS</text>
  <rect x="640" y="110" width="200" height="70" rx="6" fill="#fff" stroke="#333"/>
  <text x="740" y="138" text-anchor="middle">External model</text><text x="740" y="160" text-anchor="middle" font-size="12">sees placeholders only</text>
  <line x1="130" y1="145" x2="170" y2="145" stroke="#333" marker-end="url(#a)"/>
  <line x1="350" y1="145" x2="400" y2="145" stroke="#333" marker-end="url(#a)"/>
  <line x1="350" y1="205" x2="640" y2="160" stroke="#c8102e" stroke-dasharray="5 3" marker-end="url(#a)"/>
  <text x="590" y="214" font-size="12" fill="#c8102e">only if both passes ran</text>
  <defs><marker id="a" viewBox="0 0 10 10" refX="10" refY="5" markerWidth="7" markerHeight="7" orient="auto"><path d="M0,0 L10,5 L0,10 z" fill="#333"/></marker></defs>
</svg>
